<?xml version="1.0" encoding="utf-8"?>
<!-- Generator: Adobe Illustrator 27.0.1, SVG Export Plug-In . SVG Version: 6.00 Build 0)  -->
<svg version="1.1" id="Layer_1" xmlns="http://www.w3.org/2000/svg" xmlns:xlink="http://www.w3.org/1999/xlink" x="0px" y="0px"
	 viewBox="0 0 1080 473" style="enable-background:new 0 0 1080 473;" xml:space="preserve">
<style type="text/css">
	.st0{fill:#FFFFFF;}
</style>
<g>
	<g>
		<g>
			<path class="st0" d="M387.91,192.65l110.17,0c-2.77,12.07-7.36,23.27-13.77,33.58c-6.41,10.32-14.15,19.18-23.2,26.6
				c-9.05,7.42-19.31,13.27-30.75,17.54c-11.45,4.28-23.71,6.41-36.79,6.41c-15.34,0-29.56-2.89-42.63-8.68
				c-13.08-5.78-24.46-13.71-34.14-23.77c-9.69-10.06-17.23-21.88-22.64-35.46c-5.41-13.58-8.11-28.04-8.11-43.39
				c0-15.34,2.7-29.81,8.11-43.39c5.4-13.58,12.95-25.4,22.64-35.46c9.68-10.06,21.06-17.98,34.14-23.77
				c13.07-5.78,27.29-8.68,42.63-8.68c11.07,0,21.63,1.58,31.69,4.72c10.06,3.15,19.24,7.49,27.54,13.02
				c8.3,5.53,15.72,12.2,22.26,20c6.54,7.8,11.82,16.48,15.84,26.03h35.84c-4.78-13.58-11.57-26.16-20.37-37.73
				c-8.81-11.57-18.99-21.51-30.56-29.8c-11.57-8.3-24.33-14.77-38.29-19.43C423.56,26.33,408.91,24,393.57,24
				c-19.62,0-37.98,3.71-55.08,11.13c-17.11,7.42-32.07,17.54-44.9,30.37c-12.83,12.83-22.95,27.8-30.37,44.9
				c-7.42,17.11-11.13,35.46-11.13,55.08c0,19.62,3.71,37.98,11.13,55.08c7.42,17.11,17.54,32.07,30.37,44.89
				c12.83,12.83,27.79,22.96,44.9,30.37c17.1,7.41,35.46,11.13,55.08,11.13c19.62,0,37.98-3.71,55.08-11.13
				c17.1-7.42,32.07-17.54,44.9-30.37c12.83-12.83,22.95-27.79,30.37-44.89c7.42-17.1,11.13-35.46,11.13-55.08v-3.02l-147.14,0
				V192.65z"/>
			<path class="st0" d="M802.92,65.5c-12.83-12.83-27.8-22.95-44.9-30.37C740.91,27.71,722.55,24,702.93,24
				c-19.62,0-37.98,3.71-55.08,11.13c-17.11,7.42-32.07,17.54-44.9,30.37c-12.83,12.83-22.95,27.8-30.37,44.9
				c-7.42,17.11-11.13,35.46-11.13,55.08s3.71,37.98,11.13,55.08c7.42,17.11,17.54,32.07,30.37,44.89
				c12.83,12.83,27.79,22.96,44.9,30.37c17.1,7.41,35.46,11.13,55.08,11.13c19.62,0,37.98-3.71,55.08-11.13
				c17.1-7.42,32.07-17.54,44.9-30.37c12.83-12.83,22.95-27.79,30.37-44.89c7.42-17.1,11.13-35.46,11.13-55.08
				s-3.71-37.98-11.13-55.08C825.87,93.3,815.74,78.33,802.92,65.5z M802.35,208.87c-5.41,13.58-12.96,25.41-22.64,35.46
				c-9.69,10.06-21.07,17.99-34.14,23.77c-13.08,5.79-27.29,8.68-42.63,8.68c-15.34,0-29.56-2.89-42.63-8.68
				c-13.08-5.78-24.46-13.71-34.14-23.77c-9.69-10.06-17.23-21.88-22.64-35.46c-5.41-13.58-8.11-28.04-8.11-43.39
				c0-15.34,2.7-29.81,8.11-43.39c5.4-13.58,12.95-25.4,22.64-35.46c9.68-10.06,21.06-17.98,34.14-23.77
				c13.07-5.78,27.29-8.68,42.63-8.68c15.34,0,29.55,2.9,42.63,8.68c13.07,5.79,24.46,13.71,34.14,23.77
				c9.68,10.06,17.22,21.88,22.64,35.46c5.4,13.58,8.11,28.05,8.11,43.39C810.46,180.83,807.75,195.29,802.35,208.87z"/>
			<polygon class="st0" points="1070.79,29.66 1032.68,29.66 957.37,143.53 881.99,29.66 844.42,29.66 938.46,172.12 853.01,301.3 
				890.96,301.3 			"/>
			<polygon class="st0" points="121.55,29.66 9.87,301.3 46.09,301.3 69.1,242.07 69.27,242.07 130.98,84.37 192.69,242.07 
				192.85,242.07 215.87,301.3 252.09,301.3 140.41,29.66 			"/>
		</g>
	</g>
</g>
<g>
	<g>
		<path class="st0" d="M134.28,449.2c-6.35,0-11.46-1.67-15.34-5c-3.88-3.33-5.82-7.8-5.82-13.4h7.32c0,3.49,1.28,6.26,3.84,8.3
			c2.56,2.04,5.87,3.06,9.92,3.06c3.68,0,6.75-0.9,9.2-2.7c2.45-1.8,3.68-4.19,3.68-7.18c0-0.72-0.09-1.41-0.28-2.06
			c-0.19-0.65-0.4-1.23-0.64-1.72c-0.24-0.49-0.62-0.97-1.14-1.42c-0.52-0.45-0.99-0.84-1.4-1.16c-0.41-0.32-1.02-0.65-1.82-0.98
			c-0.8-0.33-1.45-0.6-1.94-0.8c-0.49-0.2-1.25-0.43-2.26-0.7c-1.01-0.27-1.77-0.47-2.28-0.6c-0.51-0.13-1.33-0.33-2.48-0.6
			c-4.88-1.17-8.37-2.25-10.48-3.24c-4.61-2.21-7.27-5.53-7.96-9.96c-0.13-0.85-0.2-1.75-0.2-2.68c0-4.93,1.76-8.83,5.28-11.68
			c3.52-2.85,8.27-4.28,14.24-4.28c5.92,0,10.59,1.53,14.02,4.58c3.43,3.05,5.14,7.19,5.14,12.42h-7.12c0-3.12-1.14-5.59-3.42-7.4
			c-2.28-1.81-5.21-2.72-8.78-2.72c-3.55,0-6.46,0.79-8.74,2.38c-2.28,1.59-3.42,3.71-3.42,6.38c0,0.88,0.14,1.69,0.42,2.42
			c0.28,0.73,0.62,1.37,1.02,1.92c0.4,0.55,0.99,1.07,1.76,1.56c0.77,0.49,1.48,0.89,2.12,1.2c0.64,0.31,1.53,0.63,2.66,0.98
			c1.13,0.35,2.07,0.61,2.82,0.8c0.75,0.19,1.79,0.44,3.12,0.76c4.88,1.2,8.37,2.29,10.48,3.28c4.75,2.19,7.55,5.48,8.4,9.88
			c0.21,1.07,0.32,2.19,0.32,3.36c0,3.52-0.9,6.58-2.7,9.18c-1.8,2.6-4.21,4.55-7.24,5.86C141.55,448.54,138.12,449.2,134.28,449.2z
			"/>
		<path class="st0" d="M181.43,441.76h25.2v6.72h-32.36v-57.36h7.16V441.76z"/>
		<path class="st0" d="M231.54,441.6h26.2v6.88h-33.36v-57.36h32.48v6.84h-25.32v17.72h23.16v6.64h-23.16V441.6z"/>
		<path class="st0" d="M285.01,441.6h26.2v6.88h-33.36v-57.36h32.48v6.84h-25.32v17.72h23.16v6.64h-23.16V441.6z"/>
		<path class="st0" d="M351.88,391.12c5.41,0,9.94,1.75,13.58,5.26c3.64,3.51,5.46,7.89,5.46,13.14s-1.81,9.63-5.44,13.12
			c-3.63,3.49-8.16,5.24-13.6,5.24h-13.4v20.6h-7.16v-57.36H351.88z M351.48,420.92c3.52,0,6.41-1.08,8.68-3.24
			c2.27-2.16,3.4-4.88,3.4-8.16c0-3.28-1.13-6.01-3.4-8.18c-2.27-2.17-5.16-3.26-8.68-3.26h-13v22.84H351.48z"/>
		<path class="st0" d="M423.75,441.6h26.2v6.88h-33.36v-57.36h32.48v6.84h-25.32v17.72h23.16v6.64h-23.16V441.6z"/>
		<path class="st0" d="M510.78,448.48h-8.12l-15.84-24.24l-15.72,24.24h-8.2l19.52-30.04l-18-27.32h8.12L486.86,413l14.24-21.88
			h8.08l-17.88,27.56L510.78,448.48z"/>
		<path class="st0" d="M547.93,391.12c5.41,0,9.94,1.75,13.58,5.26c3.64,3.51,5.46,7.89,5.46,13.14s-1.81,9.63-5.44,13.12
			c-3.63,3.49-8.16,5.24-13.6,5.24h-13.4v20.6h-7.16v-57.36H547.93z M547.53,420.92c3.52,0,6.41-1.08,8.68-3.24
			c2.27-2.16,3.4-4.88,3.4-8.16c0-3.28-1.13-6.01-3.4-8.18c-2.27-2.17-5.16-3.26-8.68-3.26h-13v22.84H547.53z"/>
		<path class="st0" d="M592.68,441.6h26.2v6.88h-33.36v-57.36H618v6.84h-25.32v17.72h23.16v6.64h-23.16V441.6z"/>
		<path class="st0" d="M672.39,448.48l-13.16-22.44h-13.08v22.44h-7.16v-57.36h21.72c5.39,0,9.85,1.65,13.38,4.96
			c3.53,3.31,5.3,7.51,5.3,12.6c0,4-1.15,7.47-3.44,10.42c-2.29,2.95-5.36,4.98-9.2,6.1l13.72,23.28H672.39z M646.15,397.96v21.28
			h14.2c3.49,0,6.32-0.99,8.48-2.98c2.16-1.99,3.24-4.54,3.24-7.66c0-3.09-1.09-5.64-3.26-7.64c-2.17-2-4.99-3-8.46-3H646.15z"/>
		<path class="st0" d="M699.9,448.48v-57.36h7.16v57.36H699.9z"/>
		<path class="st0" d="M738.09,441.6h26.2v6.88h-33.36v-57.36h32.48v6.84h-25.32v17.72h23.16v6.64h-23.16V441.6z"/>
		<path class="st0" d="M823.08,391.12h7.04v57.36h-6.04l-32.64-44.76v44.76h-7.04v-57.36h6.48l32.2,44.24V391.12z"/>
		<path class="st0" d="M879.4,449.36c-5.6,0-10.64-1.26-15.12-3.78c-4.48-2.52-7.98-6.03-10.5-10.54
			c-2.52-4.51-3.78-9.59-3.78-15.24c0-5.65,1.26-10.73,3.78-15.24c2.52-4.51,6.02-8.02,10.5-10.54c4.48-2.52,9.52-3.78,15.12-3.78
			c6.64,0,12.41,1.83,17.32,5.5c4.91,3.67,8.19,8.59,9.84,14.78h-7.32c-1.52-4.13-4.03-7.37-7.54-9.72
			c-3.51-2.35-7.61-3.52-12.3-3.52c-6.43,0-11.71,2.11-15.84,6.32c-4.13,4.21-6.2,9.61-6.2,16.2c0,6.59,2.07,11.99,6.2,16.2
			c4.13,4.21,9.41,6.32,15.84,6.32c4.83,0,9.01-1.25,12.56-3.74s6.07-5.94,7.56-10.34h7.32c-1.63,6.48-4.91,11.62-9.86,15.42
			C892.03,447.46,886.17,449.36,879.4,449.36z"/>
		<path class="st0" d="M932.83,441.6h26.2v6.88h-33.36v-57.36h32.48v6.84h-25.32v17.72h23.16v6.64h-23.16V441.6z"/>
	</g>
</g>
</svg>
