<?xml version="1.0" encoding="utf-8"?>
<!-- Generator: Adobe Illustrator 27.7.0, SVG Export Plug-In . SVG Version: 6.00 Build 0)  -->
<svg version="1.1" id="Layer_1" xmlns="http://www.w3.org/2000/svg" xmlns:xlink="http://www.w3.org/1999/xlink" x="0px" y="0px"
	 viewBox="0 0 1080 473" style="enable-background:new 0 0 1080 473;" xml:space="preserve">
<style type="text/css">
	.st0{fill:#DCA36F;}
	.st1{fill:none;stroke:#DCA36F;stroke-width:2;stroke-miterlimit:10;}
</style>
<g>
	<g>
		<g>
			<g>
				<path class="st0" d="M401.8,196.8h99.7c-2.5,11-6.7,21.1-12.5,30.4c-5.8,9.3-12.8,17.4-21,24.1c-8.1,6.7-17.5,12-27.9,15.8
					c-10.4,3.9-21.4,5.8-33.3,5.8c-13.8,0-26.8-2.6-38.6-7.9c-11.9-5.2-22.2-12.4-30.9-21.5c-8.8-9.1-15.6-19.8-20.5-32.1
					s-7.3-25.3-7.3-39.3c0-13.8,2.4-27,7.3-39.3s11.8-23,20.5-32.1c8.8-9.1,19.1-16.3,30.9-21.5c11.9-5.2,24.7-7.9,38.6-7.9
					c10,0,19.5,1.4,28.7,4.3c9.1,2.9,17.4,6.8,24.9,11.8s14.2,11,20.2,18.1s10.7,14.9,14.3,23.5h32.4c-4.3-12.3-10.5-23.7-18.5-34.1
					c-8-10.5-17.2-19.5-27.7-27s-22-13.4-34.7-17.6C433.6,46,420.5,44,406.6,44c-17.7,0-34.4,3.3-49.9,10s-29.1,15.8-40.6,27.5
					c-11.6,11.7-20.8,25.2-27.5,40.6c-6.7,15.4-10,32.1-10,49.9s3.3,34.4,10,49.9c6.7,15.5,15.8,29.1,27.5,40.6
					c11.6,11.6,25.2,20.8,40.6,27.5c15.5,6.7,32.1,10,49.9,10s34.4-3.3,49.9-10s29.1-15.8,40.6-27.5c11.6-11.6,20.7-25.2,27.5-40.6
					c6.7-15.5,10-32.1,10-49.9v-2.7H401.8V196.8L401.8,196.8z"/>
				<path class="st0" d="M777.3,81.8c-11.6-11.6-25.2-20.8-40.6-27.5c-15.5-6.7-32.1-10-49.9-10c-17.7,0-34.4,3.3-49.9,10
					s-29.1,15.8-40.6,27.5s-20.8,25.2-27.5,40.6s-10,32.1-10,49.9s3.3,34.4,10,49.9s15.8,29.1,27.5,40.6
					c11.6,11.6,25.2,20.8,40.6,27.5c15.5,6.7,32.1,10,49.9,10c17.7,0,34.4-3.3,49.9-10s29.1-15.8,40.6-27.5
					c11.6-11.6,20.8-25.2,27.5-40.6c6.7-15.5,10-32.1,10-49.9s-3.3-34.4-10-49.9S788.8,93.3,777.3,81.8z M776.8,211.5
					c-4.9,12.3-11.8,23-20.5,32.1c-8.8,9.1-19.1,16.3-30.9,21.5c-11.9,5.2-24.7,7.9-38.6,7.9c-13.8,0-26.8-2.6-38.6-7.9
					c-11.9-5.2-22.2-12.4-30.9-21.5c-8.8-9.1-15.6-19.8-20.5-32.1s-7.3-25.3-7.3-39.3c0-13.8,2.4-27,7.3-39.3s11.8-23,20.5-32.1
					c8.8-9.1,19.1-16.3,30.9-21.5c11.9-5.2,24.7-7.9,38.6-7.9c13.8,0,26.7,2.6,38.6,7.9c11.9,5.2,22.2,12.4,30.9,21.5
					s15.6,19.8,20.5,32.1s7.3,25.3,7.3,39.3C784.2,186.1,781.8,199.2,776.8,211.5z"/>
				<polygon class="st0" points="1019.8,49.4 985.2,49.4 917.2,152.3 848.8,49.4 814.8,49.4 900,178.2 822.7,295.1 857,295.1 				
					"/>
				<polygon class="st0" points="160.8,49.4 59.7,295.1 92.5,295.1 113.3,241.6 113.5,241.6 169.3,98.9 225.1,241.6 225.3,241.6 
					246.1,295.1 278.9,295.1 177.8,49.4 				"/>
			</g>
		</g>
	</g>
	<g>
		<g>
			<path class="st0" d="M172.3,429c-5.7,0-10.4-1.5-13.8-4.5c-3.4-3-5.2-7.1-5.2-12.1h6.6c0,3.2,1.2,5.7,3.4,7.5
				c2.4,1.8,5.3,2.8,9,2.8c3.3,0,6.2-0.8,8.3-2.4c2.2-1.6,3.3-3.8,3.3-6.5c0-0.6-0.1-1.3-0.3-1.9s-0.4-1.1-0.5-1.5
				c-0.2-0.5-0.5-0.9-1-1.3s-0.9-0.7-1.3-1.1c-0.4-0.3-0.9-0.5-1.6-0.9c-0.7-0.3-1.3-0.5-1.7-0.7c-0.5-0.2-1.1-0.4-2.1-0.6
				c-0.9-0.3-1.6-0.5-2.1-0.5c-0.5-0.1-1.2-0.3-2.3-0.5c-4.4-1.1-7.6-2-9.5-2.9c-4.2-2-6.6-5-7.2-9c-0.1-0.8-0.2-1.6-0.2-2.4
				c0-4.4,1.6-8,4.8-10.6c3.2-2.6,7.5-3.9,12.9-3.9c5.4,0,9.6,1.4,12.7,4.2c3.1,2.7,4.6,6.5,4.6,11.2h-6.4c0-2.8-1-5.1-3.1-6.7
				s-4.7-2.4-8-2.4s-5.9,0.7-7.9,2.2c-2,1.4-3.1,3.3-3.1,5.8c0,0.8,0.1,1.5,0.4,2.2s0.5,1.3,0.9,1.7c0.4,0.5,0.9,1,1.6,1.4
				s1.4,0.8,1.9,1.1c0.5,0.3,1.4,0.5,2.4,0.9c1.1,0.4,1.9,0.5,2.5,0.7c0.6,0.2,1.6,0.4,2.8,0.7c4.4,1.1,7.6,2.1,9.5,3
				c4.3,2,6.9,5,7.6,9c0.2,1,0.3,2,0.3,3.1c0,3.2-0.8,6-2.4,8.3c-1.6,2.4-3.8,4.1-6.5,5.3C178.9,428.4,175.7,429,172.3,429z"/>
			<path class="st0" d="M214.9,422.3h22.8v6.1h-29.3v-51.9h6.5V422.3L214.9,422.3z"/>
			<path class="st0" d="M260.1,422.1h23.7v6.2h-30.2v-51.9H283v6.2h-22.9v16h21v6h-21V422.1L260.1,422.1z"/>
			<path class="st0" d="M308.6,422.1h23.7v6.2h-30.2v-51.9h29.4v6.2h-22.9v16h21v6h-21L308.6,422.1L308.6,422.1z"/>
			<path class="st0" d="M369.1,376.4c4.9,0,9,1.6,12.3,4.8c3.3,3.2,5,7.1,5,11.9s-1.6,8.7-4.9,11.9c-3.3,3.2-7.4,4.7-12.3,4.7h-12.1
				v18.6h-6.5v-51.9H369.1L369.1,376.4z M368.8,403.4c3.2,0,5.8-1,7.9-2.9s3.1-4.4,3.1-7.4s-1-5.4-3.1-7.4s-4.7-3-7.9-3H357v20.6
				L368.8,403.4L368.8,403.4z"/>
			<path class="st0" d="M434.2,422.1H458v6.2h-30.2v-51.9h29.4v6.2h-22.9v16h21v6h-21V422.1L434.2,422.1z"/>
			<path class="st0" d="M513,428.4h-7.3l-14.3-21.9l-14.2,21.9h-7.4l17.6-27.1l-16.3-24.7h7.3l12.9,19.8l12.9-19.8h7.3l-16.2,25
				L513,428.4z"/>
			<path class="st0" d="M546.5,376.4c4.9,0,9,1.6,12.3,4.8c3.3,3.2,5,7.1,5,11.9s-1.6,8.7-4.9,11.9c-3.3,3.2-7.4,4.7-12.3,4.7h-12.1
				v18.6H528v-51.9H546.5L546.5,376.4z M546.2,403.4c3.2,0,5.8-1,7.9-2.9c2.1-1.9,3.1-4.4,3.1-7.4s-1-5.4-3.1-7.4
				c-2.1-2-4.7-3-7.9-3h-11.8v20.6L546.2,403.4L546.2,403.4z"/>
			<path class="st0" d="M587,422.1h23.7v6.2h-30.2v-51.9H610v6.2H587v16h21v6h-21V422.1z"/>
			<path class="st0" d="M659.2,428.4l-12-20.4h-11.9v20.3h-6.4v-51.9h19.6c4.9,0,8.9,1.4,12.1,4.5c3.3,3.1,4.8,6.8,4.8,11.4
				c0,3.6-1.1,6.8-3.1,9.4s-4.9,4.5-8.3,5.5l12.4,21.1L659.2,428.4L659.2,428.4z M635.5,382.7V402h12.9c3.2,0,5.7-0.9,7.7-2.7
				c2-1.8,2.9-4.1,2.9-7c0-2.8-1-5.1-3-6.9s-4.5-2.7-7.7-2.7L635.5,382.7L635.5,382.7z"/>
			<path class="st0" d="M684,428.4v-51.9h6.5v51.9H684L684,428.4z"/>
			<path class="st0" d="M718.7,422.1h23.7v6.2h-30.2v-51.9h29.4v6.2h-22.9v16h21v6h-21V422.1z"/>
			<path class="st0" d="M795.5,376.4h6.3v51.9h-5.4l-29.5-40.5v40.5h-6.3v-51.9h5.9l29.1,40L795.5,376.4L795.5,376.4z"/>
			<path class="st0" d="M846.5,429.2c-5.1,0-9.6-1.2-13.7-3.4c-4.1-2.3-7.2-5.4-9.5-9.5s-3.4-8.7-3.4-13.8c0-5.1,1.2-9.7,3.4-13.8
				c2.3-4.1,5.4-7.2,9.5-9.5s8.6-3.4,13.7-3.4c6,0,11.2,1.6,15.7,5c4.4,3.3,7.4,7.8,8.9,13.4h-6.6c-1.4-3.7-3.6-6.7-6.8-8.8
				c-3.2-2.2-6.9-3.2-11.1-3.2c-5.8,0-10.6,1.9-14.3,5.7c-3.7,3.8-5.6,8.7-5.6,14.7s1.9,10.9,5.6,14.7s8.5,5.7,14.3,5.7
				c4.3,0,8.1-1.1,11.4-3.3c3.3-2.3,5.5-5.3,6.9-9.3h6.6c-1.4,5.9-4.4,10.5-9,13.9C858,427.5,852.7,429.2,846.5,429.2z"/>
			<path class="st0" d="M894.8,422.1h23.7v6.2h-30.2v-51.9h29.4v6.2h-22.9v16h21v6h-21V422.1z"/>
		</g>
	</g>
</g>
<circle class="st1" cx="941" cy="365.7" r="14.5"/>
<g>
	<path class="st0" d="M944.7,368.2l3.3,1.1c-0.5,1.9-1.4,3.2-2.5,4.1c-1.2,0.9-2.7,1.4-4.5,1.4c-2.3,0-4.1-0.8-5.6-2.3
		s-2.2-3.6-2.2-6.3c0-2.8,0.7-5,2.2-6.6s3.4-2.3,5.8-2.3c2.1,0,3.8,0.6,5.1,1.8c0.8,0.7,1.4,1.8,1.7,3.1l-3.4,0.8
		c-0.2-0.9-0.6-1.6-1.3-2.1c-0.6-0.5-1.4-0.8-2.3-0.8c-1.3,0-2.3,0.5-3.1,1.4s-1.2,2.4-1.2,4.4c0,2.1,0.4,3.7,1.2,4.6s1.8,1.4,3,1.4
		c0.9,0,1.7-0.3,2.4-0.9C943.8,370.4,944.3,369.5,944.7,368.2z"/>
</g>
</svg>
