<?xml version="1.0" encoding="utf-8"?>
<!-- Generator: Adobe Illustrator 27.0.1, SVG Export Plug-In . SVG Version: 6.00 Build 0)  -->
<svg version="1.1" id="Layer_1" xmlns="http://www.w3.org/2000/svg" xmlns:xlink="http://www.w3.org/1999/xlink" x="0px" y="0px"
	 viewBox="0 0 1080 473" style="enable-background:new 0 0 1080 473;" xml:space="preserve">
<style type="text/css">
	.st0{fill:#E6D9C5;}
</style>
<g>
	<g>
		<path class="st0" d="M432.42,176.04V74.19c11.16,2.56,21.51,6.8,31.05,12.73c9.54,5.93,17.74,13.08,24.59,21.45
			c6.86,8.37,12.27,17.85,16.22,28.43c3.96,10.59,5.93,21.92,5.93,34.01c0,14.19-2.67,27.33-8.02,39.42
			c-5.35,12.1-12.67,22.62-21.98,31.57c-9.3,8.96-20.23,15.93-32.79,20.93c-12.56,5-25.93,7.5-40.11,7.5
			c-14.18,0-27.56-2.5-40.12-7.5c-12.56-5-23.49-11.97-32.79-20.93c-9.3-8.95-16.62-19.47-21.98-31.57
			c-5.35-12.09-8.02-25.23-8.02-39.42c0-10.23,1.46-20,4.36-29.3c2.91-9.3,6.92-17.79,12.04-25.46
			c5.12-7.68,11.28-14.53,18.49-20.58c7.21-6.04,15.23-10.93,24.07-14.65V47.68c-12.56,4.42-24.18,10.7-34.88,18.84
			c-10.69,8.14-19.88,17.56-27.56,28.26c-7.68,10.7-13.66,22.5-17.96,35.41c-4.3,12.91-6.45,26.46-6.45,40.64
			c0,18.14,3.43,35.12,10.29,50.93c6.86,15.82,16.22,29.65,28.08,41.51c11.86,11.86,25.7,21.22,41.51,28.08
			c15.82,6.86,32.79,10.29,50.93,10.29c18.14,0,35.12-3.43,50.93-10.29c15.82-6.86,29.65-16.22,41.51-28.08
			c11.86-11.86,21.23-25.69,28.08-41.51c6.85-15.81,10.29-32.79,10.29-50.93s-3.43-35.11-10.29-50.93
			c-6.86-15.81-16.22-29.65-28.08-41.51c-11.86-11.86-25.69-21.22-41.51-28.08C442.42,43.43,425.44,40,407.3,40h-2.79l0,136.04
			H432.42z"/>
		<path class="st0" d="M785.78,78.37c-11.86-11.86-25.7-21.22-41.51-28.08C728.45,43.44,711.48,40,693.34,40
			c-18.14,0-35.12,3.43-50.93,10.29c-15.82,6.86-29.65,16.22-41.51,28.08c-11.86,11.86-21.22,25.7-28.08,41.51
			c-6.86,15.82-10.29,32.79-10.29,50.93s3.43,35.12,10.29,50.93c6.86,15.82,16.22,29.65,28.08,41.51
			c11.86,11.86,25.69,21.23,41.51,28.08c15.81,6.85,32.79,10.29,50.93,10.29c18.14,0,35.11-3.43,50.93-10.29
			c15.81-6.86,29.65-16.22,41.51-28.08c11.86-11.86,21.22-25.69,28.08-41.51c6.86-15.81,10.29-32.79,10.29-50.93
			s-3.43-35.11-10.29-50.93C807,104.07,797.64,90.23,785.78,78.37z M785.25,210.93c-5,12.56-11.98,23.49-20.93,32.79
			c-8.96,9.31-19.48,16.63-31.57,21.98c-12.09,5.35-25.23,8.02-39.42,8.02c-14.19,0-27.33-2.67-39.42-8.02
			c-12.1-5.35-22.62-12.67-31.57-21.98c-8.96-9.3-15.93-20.23-20.93-32.79c-5-12.56-7.5-25.93-7.5-40.11
			c0-14.18,2.5-27.56,7.5-40.12c5-12.56,11.97-23.49,20.93-32.79c8.95-9.3,19.47-16.62,31.57-21.98
			c12.09-5.35,25.23-8.02,39.42-8.02c14.18,0,27.32,2.68,39.42,8.02c12.09,5.35,22.61,12.68,31.57,21.98
			c8.95,9.31,15.93,20.23,20.93,32.79c5,12.56,7.5,25.93,7.5,40.12C792.76,185,790.25,198.37,785.25,210.93z"/>
		<polygon class="st0" points="1033.45,45.23 998.22,45.23 928.58,150.51 858.89,45.23 824.15,45.23 911.1,176.95 832.1,296.39 
			867.18,296.39 		"/>
		<polygon class="st0" points="155.79,45.23 52.54,296.39 86.02,296.39 107.3,241.63 107.46,241.63 164.51,95.82 221.57,241.63 
			221.72,241.63 243,296.39 276.49,296.39 173.23,45.23 		"/>
	</g>
</g>
<g>
	<path class="st0" d="M39.71,379.44c5,0,9.19,1.62,12.56,4.86c3.37,3.24,5.05,7.29,5.05,12.15c0,4.86-1.68,8.9-5.03,12.13
		c-3.35,3.23-7.54,4.84-12.57,4.84H27.33v19.05h-6.62v-53.03H39.71z M39.34,406.99c3.25,0,5.93-1,8.03-3c2.1-2,3.14-4.51,3.14-7.54
		s-1.05-5.55-3.14-7.56c-2.1-2.01-4.77-3.01-8.03-3.01H27.33v21.12H39.34z"/>
	<path class="st0" d="M112.86,429.79c-4.24,2.38-9,3.57-14.28,3.57c-5.28,0-10.03-1.19-14.26-3.57c-4.23-2.38-7.53-5.66-9.91-9.84
		c-2.38-4.18-3.57-8.84-3.57-14s1.19-9.82,3.57-14c2.38-4.18,5.68-7.46,9.91-9.84c4.23-2.38,8.98-3.57,14.26-3.57
		c5.28,0,10.03,1.19,14.28,3.57c4.24,2.38,7.55,5.66,9.93,9.84c2.38,4.18,3.57,8.84,3.57,14s-1.19,9.82-3.57,14
		C120.41,424.13,117.1,427.41,112.86,429.79z M98.58,426.85c3.97,0,7.56-0.91,10.76-2.72c3.21-1.81,5.71-4.31,7.51-7.51
		c1.8-3.19,2.7-6.75,2.7-10.67c0-3.92-0.9-7.48-2.7-10.67c-1.8-3.19-4.3-5.7-7.51-7.51c-3.21-1.81-6.79-2.72-10.76-2.72
		c-3.95,0-7.52,0.91-10.73,2.74c-3.21,1.83-5.71,4.33-7.51,7.51c-1.8,3.18-2.7,6.73-2.7,10.65c0,3.92,0.9,7.47,2.7,10.65
		c1.8,3.18,4.3,5.68,7.51,7.51C91.06,425.94,94.64,426.85,98.58,426.85z"/>
	<path class="st0" d="M160.6,433.14c-5.87,0-10.6-1.54-14.18-4.62s-5.38-7.21-5.38-12.39h6.77c0,3.23,1.18,5.79,3.55,7.67
		c2.37,1.89,5.42,2.83,9.17,2.83c3.4,0,6.24-0.83,8.51-2.5c2.27-1.66,3.4-3.88,3.4-6.64c0-0.67-0.09-1.3-0.26-1.9
		c-0.17-0.6-0.37-1.13-0.59-1.59s-0.57-0.89-1.05-1.31c-0.48-0.42-0.91-0.78-1.29-1.07s-0.94-0.6-1.68-0.91
		c-0.74-0.31-1.34-0.55-1.79-0.74c-0.46-0.19-1.15-0.4-2.09-0.65c-0.94-0.25-1.64-0.43-2.11-0.55c-0.47-0.12-1.23-0.31-2.29-0.55
		c-4.51-1.08-7.74-2.08-9.69-3c-4.27-2.05-6.72-5.12-7.36-9.21c-0.12-0.79-0.18-1.62-0.18-2.48c0-4.56,1.63-8.16,4.88-10.8
		c3.25-2.64,7.64-3.96,13.17-3.96c5.47,0,9.79,1.41,12.96,4.23c3.17,2.82,4.75,6.65,4.75,11.48h-6.58c0-2.88-1.05-5.17-3.16-6.84
		c-2.11-1.68-4.81-2.51-8.12-2.51c-3.28,0-5.97,0.73-8.08,2.2s-3.16,3.43-3.16,5.9c0,0.81,0.13,1.56,0.39,2.24
		c0.26,0.68,0.57,1.27,0.94,1.78c0.37,0.51,0.91,0.99,1.63,1.44c0.71,0.46,1.37,0.83,1.96,1.11c0.59,0.28,1.41,0.59,2.46,0.91
		c1.05,0.32,1.92,0.57,2.61,0.74c0.69,0.17,1.65,0.41,2.88,0.7c4.51,1.11,7.74,2.12,9.69,3.03c4.39,2.02,6.98,5.07,7.77,9.14
		c0.2,0.99,0.3,2.02,0.3,3.11c0,3.25-0.83,6.08-2.5,8.49c-1.66,2.4-3.9,4.21-6.69,5.42C167.32,432.53,164.15,433.14,160.6,433.14z"
		/>
	<path class="st0" d="M229.97,379.44v6.25h-16.12v46.78h-6.66v-46.78h-16.12v-6.25H229.97z"/>
	<path class="st0" d="M238.8,414.42v-6.21h24.04v6.21H238.8z"/>
	<path class="st0" d="M298.63,433.14c-5.87,0-10.6-1.54-14.18-4.62s-5.38-7.21-5.38-12.39h6.77c0,3.23,1.18,5.79,3.55,7.67
		c2.37,1.89,5.42,2.83,9.17,2.83c3.4,0,6.24-0.83,8.51-2.5c2.27-1.66,3.4-3.88,3.4-6.64c0-0.67-0.09-1.3-0.26-1.9
		c-0.17-0.6-0.37-1.13-0.59-1.59s-0.57-0.89-1.05-1.31c-0.48-0.42-0.91-0.78-1.29-1.07s-0.94-0.6-1.68-0.91
		c-0.74-0.31-1.34-0.55-1.79-0.74c-0.46-0.19-1.15-0.4-2.09-0.65c-0.94-0.25-1.64-0.43-2.11-0.55c-0.47-0.12-1.23-0.31-2.29-0.55
		c-4.51-1.08-7.74-2.08-9.69-3c-4.27-2.05-6.72-5.12-7.36-9.21c-0.12-0.79-0.18-1.62-0.18-2.48c0-4.56,1.63-8.16,4.88-10.8
		c3.25-2.64,7.64-3.96,13.17-3.96c5.47,0,9.79,1.41,12.96,4.23c3.17,2.82,4.75,6.65,4.75,11.48h-6.58c0-2.88-1.05-5.17-3.16-6.84
		c-2.11-1.68-4.81-2.51-8.12-2.51c-3.28,0-5.97,0.73-8.08,2.2s-3.16,3.43-3.16,5.9c0,0.81,0.13,1.56,0.39,2.24
		c0.26,0.68,0.57,1.27,0.94,1.78c0.37,0.51,0.91,0.99,1.63,1.44c0.71,0.46,1.37,0.83,1.96,1.11c0.59,0.28,1.41,0.59,2.46,0.91
		c1.05,0.32,1.92,0.57,2.61,0.74c0.69,0.17,1.65,0.41,2.88,0.7c4.51,1.11,7.74,2.12,9.69,3.03c4.39,2.02,6.98,5.07,7.77,9.14
		c0.2,0.99,0.3,2.02,0.3,3.11c0,3.25-0.83,6.08-2.5,8.49c-1.66,2.4-3.9,4.21-6.69,5.42C305.36,432.53,302.18,433.14,298.63,433.14z"
		/>
	<path class="st0" d="M342.23,426.26h23.3v6.21h-29.92v-53.03h6.62V426.26z"/>
	<path class="st0" d="M388.56,426.11h24.22v6.36h-30.84v-53.03h30.03v6.32h-23.41v16.38h21.41v6.14h-21.41V426.11z"/>
	<path class="st0" d="M438,426.11h24.22v6.36h-30.84v-53.03h30.03v6.32H438v16.38h21.41v6.14H438V426.11z"/>
	<path class="st0" d="M499.83,379.44c5,0,9.19,1.62,12.56,4.86c3.37,3.24,5.05,7.29,5.05,12.15c0,4.86-1.68,8.9-5.03,12.13
		c-3.35,3.23-7.54,4.84-12.57,4.84h-12.39v19.05h-6.62v-53.03H499.83z M499.46,406.99c3.25,0,5.93-1,8.03-3
		c2.1-2,3.14-4.51,3.14-7.54s-1.05-5.55-3.14-7.56c-2.1-2.01-4.77-3.01-8.03-3.01h-12.02v21.12H499.46z"/>
	<path class="st0" d="M566.27,426.11h24.22v6.36h-30.84v-53.03h30.03v6.32h-23.41v16.38h21.41v6.14h-21.41V426.11z"/>
	<path class="st0" d="M646.74,432.47h-7.51l-14.65-22.41l-14.53,22.41h-7.58l18.05-27.77l-16.64-25.26h7.51l13.24,20.23l13.17-20.23
		h7.47l-16.53,25.48L646.74,432.47z"/>
	<path class="st0" d="M681.09,379.44c5,0,9.19,1.62,12.56,4.86s5.05,7.29,5.05,12.15c0,4.86-1.68,8.9-5.03,12.13
		c-3.35,3.23-7.54,4.84-12.57,4.84H668.7v19.05h-6.62v-53.03H681.09z M680.72,406.99c3.25,0,5.93-1,8.03-3s3.14-4.51,3.14-7.54
		s-1.05-5.55-3.14-7.56c-2.1-2.01-4.77-3.01-8.03-3.01H668.7v21.12H680.72z"/>
	<path class="st0" d="M722.46,426.11h24.22v6.36h-30.84v-53.03h30.03v6.32h-23.41v16.38h21.41v6.14h-21.41V426.11z"/>
	<path class="st0" d="M796.17,432.47L784,411.72H771.9v20.75h-6.62v-53.03h20.08c4.98,0,9.1,1.53,12.37,4.58
		c3.27,3.06,4.9,6.94,4.9,11.65c0,3.7-1.06,6.91-3.18,9.63c-2.12,2.72-4.96,4.6-8.51,5.64l12.68,21.52H796.17z M771.9,385.76v19.68
		h13.13c3.23,0,5.84-0.92,7.84-2.76c2-1.84,3-4.2,3-7.08c0-2.86-1-5.21-3.01-7.06c-2.01-1.85-4.62-2.77-7.82-2.77H771.9z"/>
	<path class="st0" d="M821.6,432.47v-53.03h6.62v53.03H821.6z"/>
	<path class="st0" d="M856.91,426.11h24.22v6.36h-30.84v-53.03h30.03v6.32h-23.41v16.38h21.41v6.14h-21.41V426.11z"/>
	<path class="st0" d="M935.5,379.44H942v53.03h-5.58l-30.18-41.38v41.38h-6.51v-53.03h5.99l29.77,40.9V379.44z"/>
	<path class="st0" d="M987.56,433.28c-5.18,0-9.84-1.17-13.98-3.5c-4.14-2.33-7.38-5.58-9.71-9.75c-2.33-4.17-3.5-8.86-3.5-14.09
		c0-5.23,1.17-9.92,3.5-14.09c2.33-4.17,5.57-7.42,9.71-9.75c4.14-2.33,8.8-3.5,13.98-3.5c6.14,0,11.48,1.7,16.01,5.09
		c4.54,3.39,7.57,7.95,9.1,13.67h-6.77c-1.41-3.82-3.73-6.82-6.97-8.99c-3.24-2.17-7.03-3.25-11.37-3.25
		c-5.94,0-10.82,1.95-14.65,5.84c-3.82,3.9-5.73,8.89-5.73,14.98s1.91,11.08,5.73,14.98c3.82,3.9,8.7,5.84,14.65,5.84
		c4.46,0,8.33-1.15,11.61-3.46c3.28-2.3,5.61-5.49,6.99-9.56h6.77c-1.5,5.99-4.54,10.74-9.12,14.26
		C999.24,431.53,993.82,433.28,987.56,433.28z"/>
	<path class="st0" d="M1036.96,426.11h24.22v6.36h-30.84v-53.03h30.03v6.32h-23.41v16.38h21.41v6.14h-21.41V426.11z"/>
</g>
</svg>
