<?xml version="1.0" encoding="utf-8"?>
<!-- Generator: Adobe Illustrator 27.0.1, SVG Export Plug-In . SVG Version: 6.00 Build 0)  -->
<svg version="1.1" id="Layer_1" xmlns="http://www.w3.org/2000/svg" xmlns:xlink="http://www.w3.org/1999/xlink" x="0px" y="0px"
	 viewBox="0 0 1080 473" style="enable-background:new 0 0 1080 473;" xml:space="preserve">
<style type="text/css">
	.st0{fill:#DDA46F;}
</style>
<g>
	<g>
		<path class="st0" d="M408.28,192.17l78-78c6.58,10.51,11.26,21.68,14.02,33.52c2.76,11.85,3.56,23.6,2.4,35.26
			c-1.16,11.66-4.28,23.06-9.35,34.19c-5.07,11.14-12.25,21.33-21.5,30.58c-10.86,10.86-22.97,18.88-36.33,24.04
			c-13.36,5.17-27.02,7.62-41,7.35c-13.98-0.26-27.69-3.29-41.13-9.08c-13.45-5.78-25.6-14.11-36.46-24.97
			c-10.86-10.86-19.19-23.01-24.97-36.46c-5.79-13.44-8.81-27.15-9.08-41.13c-0.27-13.97,2.18-27.64,7.35-41
			c5.16-13.35,13.17-25.46,24.04-36.33c7.83-7.83,16.43-14.2,25.78-19.1c9.35-4.89,18.93-8.32,28.72-10.28
			c9.8-1.96,19.77-2.49,29.92-1.6c10.15,0.89,20.03,3.3,29.65,7.21l25.38-25.38c-13-6.23-26.71-10.33-41.14-12.29
			c-14.42-1.95-28.67-1.78-42.74,0.54c-14.07,2.31-27.69,6.77-40.87,13.36c-13.18,6.59-25.2,15.32-36.06,26.18
			c-13.89,13.89-24.26,29.52-31.12,46.88c-6.86,17.37-10.28,35.12-10.28,53.29c0,18.16,3.43,35.93,10.28,53.29
			c6.86,17.37,17.23,32.99,31.12,46.88c13.89,13.89,29.52,24.26,46.88,31.12c17.36,6.86,35.13,10.28,53.29,10.28
			c18.16,0,35.93-3.42,53.29-10.28c17.36-6.86,32.99-17.23,46.88-31.12s24.26-29.52,31.12-46.88c6.86-17.36,10.28-35.13,10.28-53.29
			c0-18.16-3.43-35.92-10.28-53.29c-6.86-17.36-17.23-32.99-31.12-46.88l-2.14-2.14L386.92,170.8L408.28,192.17z"/>
		<path class="st0" d="M802.91,68.83c-12.84-12.84-27.83-22.98-44.95-30.41c-17.13-7.43-35.51-11.14-55.15-11.14
			s-38.03,3.72-55.15,11.14c-17.13,7.43-32.11,17.56-44.95,30.41c-12.84,12.84-22.98,27.83-30.41,44.95
			c-7.43,17.13-11.14,35.51-11.14,55.15s3.71,38.03,11.14,55.15c7.43,17.13,17.57,32.11,30.41,44.95
			c12.84,12.84,27.82,22.99,44.95,30.41c17.12,7.42,35.51,11.14,55.15,11.14s38.02-3.72,55.15-11.14
			c17.12-7.43,32.11-17.57,44.95-30.41c12.84-12.84,22.98-27.82,30.41-44.95c7.43-17.12,11.14-35.51,11.14-55.15
			s-3.72-38.02-11.14-55.15C825.89,96.66,815.75,81.67,802.91,68.83z M802.35,212.37c-5.42,13.6-12.97,25.44-22.66,35.51
			c-9.7,10.08-21.1,18.01-34.19,23.8c-13.1,5.79-27.33,8.69-42.69,8.69c-15.36,0-29.59-2.89-42.69-8.69
			c-13.1-5.79-24.49-13.72-34.19-23.8c-9.7-10.07-17.25-21.91-22.66-35.51c-5.42-13.6-8.12-28.08-8.12-43.44
			c0-15.36,2.7-29.84,8.12-43.44c5.41-13.6,12.97-25.43,22.66-35.51c9.69-10.07,21.09-18,34.19-23.8
			c13.09-5.79,27.32-8.69,42.69-8.69c15.36,0,29.59,2.9,42.69,8.69c13.09,5.79,24.49,13.73,34.19,23.8
			c9.69,10.08,17.25,21.91,22.66,35.51c5.41,13.6,8.12,28.08,8.12,43.44C810.47,184.3,807.76,198.77,802.35,212.37z"/>
		<polygon class="st0" points="1071.12,32.94 1032.96,32.94 957.56,146.95 882.08,32.94 844.47,32.94 938.62,175.57 853.07,304.92 
			891.06,304.92 		"/>
		<polygon class="st0" points="120.7,32.94 8.89,304.92 45.15,304.92 68.19,245.62 68.36,245.62 130.14,87.72 191.93,245.62 
			192.09,245.62 215.14,304.92 251.4,304.92 139.59,32.94 		"/>
	</g>
</g>
<g>
	<path class="st0" d="M28.43,394.85c5.42,0,9.95,1.76,13.6,5.27c3.64,3.51,5.47,7.9,5.47,13.16c0,5.26-1.82,9.64-5.45,13.14
		c-3.63,3.5-8.17,5.25-13.62,5.25H15.02v20.62H7.85v-57.43H28.43z M28.03,424.68c3.52,0,6.42-1.08,8.69-3.24
		c2.27-2.16,3.4-4.89,3.4-8.17s-1.13-6.01-3.4-8.19c-2.27-2.18-5.17-3.26-8.69-3.26H15.02v22.87H28.03z"/>
	<path class="st0" d="M99.51,452.28l-13.18-22.47h-13.1v22.47h-7.17v-57.43h21.75c5.39,0,9.86,1.66,13.4,4.97
		c3.54,3.31,5.31,7.52,5.31,12.62c0,4-1.15,7.48-3.44,10.43c-2.3,2.95-5.37,4.99-9.21,6.11l13.74,23.31H99.51z M73.24,401.7V423
		h14.22c3.5,0,6.33-1,8.49-2.98c2.16-1.99,3.24-4.54,3.24-7.67c0-3.1-1.09-5.65-3.26-7.65c-2.18-2-5-3-8.47-3H73.24z"/>
	<path class="st0" d="M134.23,445.39h26.23v6.89h-33.4v-57.43h32.52v6.85h-25.35v17.74h23.19v6.65h-23.19V445.39z"/>
	<path class="st0" d="M177.15,432.73v-6.73h26.03v6.73H177.15z"/>
	<path class="st0" d="M241.94,453c-6.35,0-11.47-1.67-15.36-5.01c-3.88-3.34-5.83-7.81-5.83-13.42h7.33c0,3.5,1.28,6.27,3.84,8.31
		c2.56,2.04,5.87,3.06,9.93,3.06c3.68,0,6.75-0.9,9.21-2.7c2.46-1.8,3.68-4.2,3.68-7.19c0-0.72-0.09-1.41-0.28-2.06
		c-0.19-0.65-0.4-1.23-0.64-1.72c-0.24-0.49-0.62-0.97-1.14-1.42s-0.99-0.84-1.4-1.16c-0.41-0.32-1.02-0.65-1.82-0.98
		c-0.8-0.33-1.45-0.6-1.94-0.8s-1.25-0.43-2.26-0.7s-1.78-0.47-2.28-0.6c-0.51-0.13-1.34-0.33-2.48-0.6
		c-4.89-1.17-8.38-2.26-10.49-3.24c-4.62-2.22-7.28-5.54-7.97-9.97c-0.13-0.85-0.2-1.75-0.2-2.68c0-4.94,1.76-8.84,5.29-11.69
		c3.52-2.86,8.28-4.29,14.26-4.29c5.93,0,10.61,1.53,14.04,4.59c3.43,3.06,5.15,7.2,5.15,12.44h-7.13c0-3.12-1.14-5.59-3.42-7.41
		s-5.21-2.72-8.79-2.72c-3.55,0-6.47,0.79-8.75,2.38c-2.28,1.59-3.42,3.72-3.42,6.39c0,0.88,0.14,1.69,0.42,2.42
		c0.28,0.74,0.62,1.38,1.02,1.92c0.4,0.55,0.99,1.07,1.76,1.56c0.77,0.49,1.48,0.9,2.12,1.2c0.64,0.31,1.53,0.63,2.66,0.98
		c1.13,0.35,2.08,0.62,2.82,0.8c0.75,0.19,1.79,0.44,3.12,0.76c4.89,1.2,8.38,2.3,10.49,3.28c4.75,2.19,7.56,5.49,8.41,9.89
		c0.21,1.07,0.32,2.19,0.32,3.36c0,3.52-0.9,6.59-2.7,9.19c-1.8,2.6-4.22,4.56-7.25,5.87C249.23,452.34,245.79,453,241.94,453z"/>
	<path class="st0" d="M289.15,445.55h25.23v6.73h-32.4v-57.43h7.17V445.55z"/>
	<path class="st0" d="M339.33,445.39h26.23v6.89h-33.4v-57.43h32.52v6.85h-25.35v17.74h23.19v6.65h-23.19V445.39z"/>
	<path class="st0" d="M392.86,445.39h26.23v6.89h-33.4v-57.43h32.52v6.85h-25.35v17.74h23.19v6.65h-23.19V445.39z"/>
	<path class="st0" d="M459.82,394.85c5.42,0,9.95,1.76,13.6,5.27c3.64,3.51,5.47,7.9,5.47,13.16c0,5.26-1.82,9.64-5.45,13.14
		c-3.63,3.5-8.17,5.25-13.62,5.25H446.4v20.62h-7.17v-57.43H459.82z M459.42,424.68c3.52,0,6.42-1.08,8.69-3.24
		c2.27-2.16,3.4-4.89,3.4-8.17s-1.13-6.01-3.4-8.19c-2.27-2.18-5.17-3.26-8.69-3.26H446.4v22.87H459.42z"/>
	<path class="st0" d="M531.77,445.39H558v6.89h-33.4v-57.43h32.52v6.85h-25.35v17.74h23.19v6.65h-23.19V445.39z"/>
	<path class="st0" d="M618.91,452.28h-8.13l-15.86-24.27l-15.74,24.27h-8.21l19.54-30.08l-18.02-27.35h8.13l14.34,21.91l14.26-21.91
		h8.09l-17.9,27.59L618.91,452.28z"/>
	<path class="st0" d="M656.11,394.85c5.42,0,9.95,1.76,13.6,5.27c3.64,3.51,5.47,7.9,5.47,13.16c0,5.26-1.82,9.64-5.45,13.14
		c-3.63,3.5-8.17,5.25-13.62,5.25h-13.42v20.62h-7.17v-57.43H656.11z M655.71,424.68c3.52,0,6.42-1.08,8.69-3.24
		c2.27-2.16,3.4-4.89,3.4-8.17s-1.13-6.01-3.4-8.19s-5.17-3.26-8.69-3.26h-13.02v22.87H655.71z"/>
	<path class="st0" d="M700.91,445.39h26.23v6.89h-33.4v-57.43h32.52v6.85h-25.35v17.74h23.19v6.65h-23.19V445.39z"/>
	<path class="st0" d="M780.72,452.28l-13.18-22.47h-13.1v22.47h-7.17v-57.43h21.75c5.39,0,9.86,1.66,13.4,4.97s5.31,7.52,5.31,12.62
		c0,4-1.15,7.48-3.44,10.43s-5.37,4.99-9.21,6.11l13.74,23.31H780.72z M754.45,401.7V423h14.22c3.5,0,6.33-1,8.49-2.98
		c2.16-1.99,3.24-4.54,3.24-7.67c0-3.1-1.09-5.65-3.26-7.65c-2.18-2-5-3-8.47-3H754.45z"/>
	<path class="st0" d="M808.27,452.28v-57.43h7.17v57.43H808.27z"/>
	<path class="st0" d="M846.51,445.39h26.23v6.89h-33.4v-57.43h32.52v6.85h-25.35v17.74h23.19v6.65h-23.19V445.39z"/>
	<path class="st0" d="M931.6,394.85h7.05v57.43h-6.05l-32.68-44.81v44.81h-7.05v-57.43h6.49l32.24,44.29V394.85z"/>
	<path class="st0" d="M987.98,453.16c-5.61,0-10.65-1.26-15.14-3.78c-4.49-2.52-7.99-6.04-10.51-10.55
		c-2.52-4.51-3.78-9.6-3.78-15.26s1.26-10.75,3.78-15.26c2.52-4.51,6.03-8.03,10.51-10.55c4.49-2.52,9.53-3.79,15.14-3.79
		c6.65,0,12.43,1.84,17.34,5.51c4.91,3.67,8.2,8.6,9.85,14.8h-7.33c-1.52-4.14-4.04-7.38-7.55-9.73s-7.62-3.52-12.32-3.52
		c-6.43,0-11.72,2.11-15.86,6.33s-6.21,9.62-6.21,16.22s2.07,12,6.21,16.22s9.42,6.33,15.86,6.33c4.83,0,9.02-1.25,12.58-3.74
		c3.55-2.5,6.07-5.95,7.57-10.35h7.33c-1.63,6.49-4.92,11.63-9.87,15.44C1000.63,451.26,994.76,453.16,987.98,453.16z"/>
	<path class="st0" d="M1041.48,445.39h26.23v6.89h-33.4v-57.43h32.52v6.85h-25.35v17.74h23.19v6.65h-23.19V445.39z"/>
</g>
</svg>
