<?xml version="1.0" encoding="utf-8"?>
<!-- Generator: Adobe Illustrator 27.0.1, SVG Export Plug-In . SVG Version: 6.00 Build 0)  -->
<svg version="1.1" id="Layer_1" xmlns="http://www.w3.org/2000/svg" xmlns:xlink="http://www.w3.org/1999/xlink" x="0px" y="0px"
	 viewBox="0 0 1080 473" style="enable-background:new 0 0 1080 473;" xml:space="preserve">
<style type="text/css">
	.st0{fill:#DDA46F;}
</style>
<g>
	<g>
		<path class="st0" d="M398.12,256.57l102.28,0c-2.57,11.21-6.83,21.6-12.78,31.17c-5.95,9.58-13.14,17.81-21.54,24.69
			c-8.41,6.89-17.92,12.32-28.55,16.29c-10.63,3.97-22.01,5.95-34.15,5.95c-14.25,0-27.44-2.68-39.58-8.06
			c-12.15-5.37-22.71-12.72-31.7-22.07c-8.99-9.34-16-20.31-21.02-32.92c-5.02-12.61-7.53-26.03-7.53-40.28
			c0-14.24,2.51-27.67,7.53-40.28c5.02-12.61,12.02-23.58,21.02-32.92c8.99-9.34,19.55-16.69,31.7-22.07
			c12.14-5.37,25.33-8.06,39.58-8.06c10.27,0,20.08,1.46,29.42,4.38c9.34,2.92,17.86,6.95,25.57,12.09
			c7.71,5.14,14.59,11.33,20.67,18.56c6.07,7.24,10.97,15.3,14.71,24.17h33.28c-4.44-12.61-10.74-24.28-18.91-35.03
			c-8.18-10.74-17.63-19.96-28.37-27.67c-10.74-7.71-22.59-13.71-35.55-18.04c-12.96-4.32-26.56-6.48-40.8-6.48
			c-18.21,0-35.26,3.45-51.14,10.33c-15.88,6.89-29.77,16.29-41.68,28.2c-11.91,11.91-21.31,25.8-28.2,41.68
			c-6.89,15.88-10.33,32.92-10.33,51.14s3.44,35.26,10.33,51.14c6.89,15.88,16.29,29.77,28.2,41.68
			c11.91,11.91,25.8,21.31,41.68,28.2c15.88,6.88,32.92,10.33,51.14,10.33c18.21,0,35.26-3.45,51.14-10.33
			c15.88-6.89,29.77-16.29,41.68-28.2c11.91-11.91,21.31-25.8,28.2-41.68c6.89-15.88,10.33-32.92,10.33-51.14v-2.8l-136.6,0V256.57z
			"/>
		<path class="st0" d="M783.4,138.53c-11.91-11.91-25.8-21.31-41.68-28.2C725.84,103.45,708.8,100,690.58,100
			c-18.21,0-35.26,3.45-51.14,10.33c-15.88,6.89-29.77,16.29-41.68,28.2c-11.91,11.91-21.31,25.8-28.2,41.68
			c-6.89,15.88-10.33,32.92-10.33,51.14s3.44,35.26,10.33,51.14c6.89,15.88,16.29,29.77,28.2,41.68
			c11.91,11.91,25.8,21.31,41.68,28.2c15.88,6.88,32.92,10.33,51.14,10.33c18.21,0,35.26-3.45,51.14-10.33
			c15.88-6.88,29.77-16.29,41.68-28.2c11.91-11.91,21.31-25.8,28.2-41.68c6.89-15.88,10.33-32.92,10.33-51.14
			s-3.45-35.26-10.33-51.14C804.71,164.33,795.31,150.44,783.4,138.53z M782.88,271.63c-5.02,12.61-12.03,23.59-21.02,32.92
			c-8.99,9.34-19.56,16.7-31.7,22.07c-12.14,5.37-25.34,8.06-39.58,8.06c-14.25,0-27.44-2.68-39.58-8.06
			c-12.15-5.37-22.71-12.72-31.7-22.07c-8.99-9.34-16-20.31-21.02-32.92c-5.02-12.61-7.53-26.03-7.53-40.28
			c0-14.24,2.51-27.67,7.53-40.28c5.02-12.61,12.02-23.58,21.02-32.92c8.99-9.34,19.55-16.69,31.7-22.07
			c12.14-5.37,25.33-8.06,39.58-8.06c14.24,0,27.44,2.69,39.58,8.06c12.14,5.37,22.71,12.73,31.7,22.07
			c8.99,9.34,15.99,20.32,21.02,32.92c5.02,12.61,7.53,26.04,7.53,40.28C790.41,245.59,787.9,259.02,782.88,271.63z"/>
		<polygon class="st0" points="1032.09,105.25 996.71,105.25 926.79,210.96 856.81,105.25 821.93,105.25 909.24,237.51 
			829.91,357.44 865.14,357.44 		"/>
		<polygon class="st0" points="150.84,105.25 47.16,357.44 80.79,357.44 102.15,302.45 102.31,302.45 159.59,156.04 216.89,302.45 
			217.04,302.45 238.4,357.44 272.03,357.44 168.35,105.25 		"/>
	</g>
</g>
</svg>
